<?xml version="1.0" encoding="UTF-8"?>
<!DOCTYPE svg PUBLIC "-//W3C//DTD SVG 1.1//EN" "http://www.w3.org/Graphics/SVG/1.1/DTD/svg11.dtd">
<svg version="1.1" xmlns="http://www.w3.org/2000/svg" xmlns:xlink="http://www.w3.org/1999/xlink" x="0px" y="0px" width="10" height="10" viewBox="0, 0, 10, 10">
  <g id="icons">
    <path d="M2,8.25 C1.587,8.25 1.251,8.586 1.251,9 C1.251,9.414 1.587,9.75 2,9.75 C2.414,9.75 2.75,9.414 2.75,9 C2.75,8.586 2.414,8.25 2,8.25" fill="#74797F"/>
    <path d="M1.501,6.5 C1.501,6.502 1.502,6.504 1.502,6.506 L1.511,6.6 L1.521,6.6 C1.569,6.826 1.76,7 2,7 C2.242,7 2.433,6.826 2.48,6.6 L2.5,6.6 L3,1.004 C3,1.003 3,1.002 3,1 C3,0.447 2.553,0 2,0 C1.449,0 1.001,0.447 1.001,1 L1.001,1 L1.501,6.498 C1.501,6.498 1.501,6.499 1.501,6.5" fill="#74797F"/>
    <path d="M5,8.25 C4.586,8.25 4.25,8.586 4.25,9 C4.25,9.414 4.586,9.75 5,9.75 C5.414,9.75 5.75,9.414 5.75,9 C5.75,8.586 5.414,8.25 5,8.25" fill="#74797F"/>
    <path d="M4.501,6.5 C4.501,6.502 4.502,6.504 4.502,6.506 L4.511,6.6 L4.521,6.6 C4.568,6.826 4.76,7 5.001,7 C5.242,7 5.434,6.826 5.481,6.6 L5.501,6.6 L6,1.004 C6,1.003 6.001,1.002 6.001,1 C6.001,0.447 5.553,0 5.001,0 C4.449,0 4.001,0.447 4.001,1 L4.001,1 L4.501,6.498 C4.501,6.498 4.501,6.499 4.501,6.5" fill="#74797F"/>
    <path d="M8.001,8.25 C7.587,8.25 7.251,8.586 7.251,9 C7.251,9.414 7.587,9.75 8.001,9.75 C8.415,9.75 8.751,9.414 8.751,9 C8.751,8.586 8.415,8.25 8.001,8.25" fill="#74797F"/>
    <path d="M7.501,6.5 C7.501,6.502 7.502,6.504 7.502,6.506 L7.511,6.6 L7.521,6.6 C7.568,6.826 7.76,7 8.001,7 C8.242,7 8.434,6.826 8.481,6.6 L8.501,6.6 L9,1.004 C9,1.003 9.001,1.002 9.001,1 C9.001,0.447 8.553,0 8.001,0 C7.449,0 7.001,0.447 7.001,1 L7.001,1 L7.501,6.498 C7.501,6.498 7.501,6.499 7.501,6.5" fill="#74797F"/>
  </g>
  <defs/>
</svg>
