<?xml version="1.0" encoding="UTF-8"?>
<!DOCTYPE svg PUBLIC "-//W3C//DTD SVG 1.1//EN" "http://www.w3.org/Graphics/SVG/1.1/DTD/svg11.dtd">
<svg version="1.1" xmlns="http://www.w3.org/2000/svg" xmlns:xlink="http://www.w3.org/1999/xlink" x="0px" y="0px" width="10" height="10" viewBox="0, 0, 10, 10">
  <g id="icons">
    <path d="M5.001,8.25 C4.587,8.25 4.251,8.586 4.251,9 C4.251,9.414 4.587,9.75 5.001,9.75 C5.415,9.75 5.751,9.414 5.751,9 C5.751,8.586 5.415,8.25 5.001,8.25" fill="#74797F"/>
    <path d="M4.501,6.5 C4.501,6.502 4.502,6.504 4.502,6.506 L4.511,6.6 L4.521,6.6 C4.568,6.826 4.76,7 5.001,7 C5.242,7 5.434,6.826 5.481,6.6 L5.501,6.6 L6,1.004 C6,1.003 6.001,1.002 6.001,1 C6.001,0.447 5.553,0 5.001,0 C4.449,0 4.001,0.447 4.001,1 L4.001,1 L4.501,6.498 C4.501,6.498 4.501,6.499 4.501,6.5" fill="#74797F"/>
  </g>
  <defs/>
</svg>
